<svg width="159" height="108" viewBox="0 0 159 108" fill="none" xmlns="http://www.w3.org/2000/svg">
<path d="M68.1247 40.7046L68.175 40.621C68.8591 39.461 69.394 36.0673 69.735 34.6234C70.2754 32.3482 70.531 30.0528 70.9019 27.7538C71.1413 26.2696 71.534 24.7772 71.7937 23.2774C72.4074 19.7329 72.908 16.2104 73.8691 12.7362C74.3242 11.091 74.5289 9.29537 75.3436 7.75819C76.925 5.11369 78.8518 2.46285 81.7902 1.23291C82.4413 0.960415 83.124 0.529285 83.8295 0.353988C86.9085 -0.117475 90.6386 0.218635 93.7866 0.17514C95.8819 0.146194 96.2869 0.634335 98.3681 0.0109863C96.9148 1.21537 96.6928 1.11574 95.0414 1.87928C92.9978 2.82407 91.6075 4.55699 90.4699 6.40289C88.0849 10.2726 87.6401 13.0219 87.0373 17.4454C86.8186 19.0507 86.2605 21.1583 85.9953 22.8504C85.828 23.9175 85.6275 25.2683 85.4207 26.322L81.4383 47.4109C81.0144 49.6054 80.3602 51.7406 80.0219 53.974C78.7567 62.3272 77.1644 70.5671 75.504 78.8438C74.9026 81.9763 74.3351 85.1152 73.8016 88.26C72.9759 93.1313 72.4017 97.7328 68.9131 101.61C67.9575 102.672 66.8108 103.533 65.6833 104.397C61.79 107.581 57.9796 107.833 53.1588 107.72C51.3847 107.679 49.3913 107.75 47.5411 107.678L37.4754 107.664C30.1439 107.646 24.2018 107.538 17.2994 104.619C14.8122 103.568 12.4411 102.268 10.3917 100.492C7.93562 98.3631 4.49615 94.6579 3.11302 91.7602C1.99738 89.4229 1.38483 86.7472 0.883151 84.2119C0.5435 82.4953 0.144845 80.717 0.0273043 78.9701C-0.247376 74.8878 1.5974 65.8031 3.44595 62.1091C4.25225 60.4977 6.22031 57.9674 7.43021 56.5859C12.084 51.2723 19.3847 47.9337 26.3 47.023C27.8062 46.8246 29.2827 47.0088 30.7893 47.0888C31.9766 47.141 33.1648 47.1684 34.3532 47.1707L48.3703 47.1865C51.8278 47.1933 55.3697 47.2543 58.816 47.0721C61.996 46.9041 64.7649 45.1143 66.8303 42.7588C67.1322 42.1869 67.7534 41.2806 68.1247 40.7046ZM64.8118 60.9865C61.6735 61.0998 58.8118 60.9731 55.7105 60.9596L41.1079 60.9736C36.8603 60.9791 32.5658 60.8453 28.3734 61.1744C18.8419 61.9225 13.4839 69.9014 14.2303 79.0649C14.2664 83.0406 16.4547 88.098 20.1748 89.9078C20.8049 90.2144 21.3219 91.0653 22.1335 91.4241C26.9282 93.5433 31.2738 93.3235 36.4253 93.3215L47.8988 93.314C49.6636 93.2973 51.4286 93.3144 53.1927 93.3651C54.9156 93.4246 57.114 93.5629 58.8131 93.4604C59.2028 92.2903 59.1342 88.9789 59.6922 87.46C60.3831 85.5794 60.363 82.4064 60.927 80.5326C62.8156 74.2581 62.9348 67.1643 64.8118 60.9865Z" fill="#730155"/>
<path d="M68.123 40.7046L68.1733 40.621C68.8574 39.461 69.3923 36.0673 69.7333 34.6234C70.2737 32.3482 70.5293 30.0528 70.9002 27.7538C71.1396 26.2696 71.5323 24.7772 71.792 23.2774C72.4057 19.7329 72.9063 16.2104 73.8674 12.7362C74.3225 11.091 74.5272 9.29537 75.3419 7.75819C76.9232 5.11369 78.8501 2.46285 81.7885 1.23291C82.4396 0.960415 83.1223 0.529285 83.8278 0.353988C86.9068 -0.117475 90.6369 0.218635 93.7849 0.17514C95.8802 0.146194 96.2852 0.634335 98.3664 0.0109863C96.9131 1.21537 96.6911 1.11574 95.0397 1.87928C92.9961 2.82407 91.6058 4.55699 90.4682 6.40289C88.0832 10.2726 87.6384 13.0219 87.0356 17.4454C86.8169 19.0507 86.2588 21.1583 85.9936 22.8504C85.8263 23.9175 85.6258 25.2683 85.419 26.322L81.4366 47.4109C81.0127 49.6054 80.3585 51.7406 80.0202 53.974C78.755 62.3272 77.1627 70.5671 75.5023 78.8438C74.9009 81.9763 74.3334 85.1152 73.7999 88.26C72.9742 93.1313 72.4 97.7328 68.9114 101.61C67.9558 102.672 66.8091 103.533 65.6816 104.397C61.7883 107.581 57.9779 107.833 53.1571 107.72C51.383 107.679 49.3896 107.75 47.5394 107.678L47.5871 107.504C47.3078 107.37 46.9687 107.441 46.6212 107.458L46.5879 107.341C47.5848 106.714 47.6225 107.952 48.4993 105.884C51.9488 104.093 53.9312 102.808 56.1059 99.4563C57.5546 97.2238 58.5073 96.2488 58.8114 93.4604C59.2011 92.2903 59.1325 88.9789 59.6905 87.46C60.3814 85.5794 60.3613 82.4064 60.9253 80.5326C62.8139 74.2581 62.9331 67.1643 64.8101 60.9865C64.9147 60.5663 64.9271 60.0806 65.0227 59.6572C66.0201 55.2388 66.8488 51.3649 67.3049 46.8294C67.2803 45.9603 67.468 43.5182 66.8286 42.7588C67.1305 42.1869 67.7517 41.2806 68.123 40.7046Z" fill="#1D276E"/>
<path d="M66.8301 42.7588C67.132 42.1869 67.7532 41.2806 68.1245 40.7046C68.5866 41.5303 68.4943 41.6539 68.2612 42.577L68.2396 42.4696C67.967 44.5023 67.9559 44.8674 67.3065 46.8294C67.2818 45.9603 67.4695 43.5182 66.8301 42.7588Z" fill="#222571"/>
<path d="M92.3667 74.2754C91.8381 76.5141 91.7435 79.0118 91.1832 81.2408C89.6191 87.4634 89.5982 95.7502 85.9035 101.142C83.843 104.149 79.63 107.203 76.0939 107.475C74.5227 107.596 63.9583 107.889 63.291 107.402C63.4089 106.537 64.801 106.257 65.5542 105.959C66.9594 105.414 68.2596 104.63 69.3971 103.642C69.8313 103.26 70.2229 102.846 70.5996 102.397C72.3713 100.287 73.8635 97.8533 74.4994 95.1481C74.7695 93.9994 74.8817 92.8314 75.0909 91.6782C75.4856 89.5031 75.9339 87.3511 76.3367 85.1792C76.5288 84.1309 76.6027 83.0321 76.8116 81.9948L86.6901 30.3941C87.0669 28.4288 87.275 26.675 87.5961 24.7491C88.0919 21.7072 88.6559 18.6771 89.2878 15.6607C89.4901 14.6507 89.5705 13.1528 89.8657 12.2733C91.2664 8.10113 93.3918 4.32488 97.3978 2.16691C98.3525 1.65268 99.9014 0.580742 101.004 0.367749C105.497 -0.499976 110.385 0.485356 114.936 0.151371C120.914 0.0744101 127.105 0.112173 133.087 0.285087C134.114 0.314734 135.625 0.996786 136.668 1.21278C139.219 1.79019 140.989 2.1284 143.308 3.55601C144.836 4.09405 147.302 5.83311 148.521 6.90526C148.971 7.31875 150.88 8.81801 151.008 8.96897C151.97 10.099 154.298 12.9022 154.929 14.0667C156.628 17.1967 158.431 22.9388 158.507 26.5211C158.562 29.0913 158.667 33.2971 158.351 35.7734C157.6 41.4821 155.123 46.8251 151.251 51.0865C148.169 54.4293 144.57 56.9643 140.287 58.6292C139.175 59.0616 137.672 59.2692 136.532 59.6092C133.988 60.3681 132.746 60.6487 130.05 60.7362C123.492 60.949 116.94 60.8232 110.382 60.8807C107.888 60.9026 104.191 60.563 101.804 61.0123C100.246 61.3087 98.8001 62.0267 97.6226 63.0882C96.5444 63.7366 95.8097 64.4528 95.0589 65.4671C94.8499 65.6581 94.8341 65.6646 94.7244 65.9195L94.6317 65.9219C94.4769 66.1766 94.2144 66.5825 94.1011 66.8375C93.5726 68.1059 93.2834 70.1832 93.054 71.5948C92.7516 72.5812 92.5748 73.2652 92.3667 74.2754ZM97.6456 46.5369C98.2445 46.6971 99.4823 46.7603 100.154 46.8347C104.025 47.263 107.954 47.1042 111.854 47.1257C115.341 47.1451 118.892 47.1367 122.381 47.0727C123.371 47.1358 125.372 46.4835 126.237 46.5719C130.528 47.011 133.551 46.3681 137.429 44.3499C140.338 42.836 140.801 41.752 142.437 38.9843C143.976 36.379 144.525 34.5039 144.49 31.4008C144.581 27.9258 144.544 24.6312 142.737 21.4961C142.173 20.5153 141.687 19.5781 140.871 18.7689C138.893 16.6443 133.809 14.5175 130.965 14.2995C128.427 14.105 124.699 14.1802 122.048 14.1792L110.244 14.177C108.72 14.1766 105.104 14.2895 103.85 13.8985L103.745 13.8652C103.187 18.5071 102 23.1756 101.376 27.8293C101.305 28.3589 101.051 29.1352 100.909 29.6682C99.7532 33.9827 99.4188 38.4679 98.4214 42.8247C98.1419 44.0455 98.0265 45.3431 97.6456 46.5369Z" fill="#79787B"/>
<path d="M92.3667 74.2754C91.8381 76.5141 91.7435 79.0118 91.1832 81.2408C89.6191 87.4634 89.5982 95.7502 85.9035 101.142C83.843 104.149 79.63 107.203 76.0939 107.475C74.5227 107.596 63.9583 107.889 63.291 107.402C63.4089 106.537 64.801 106.257 65.5542 105.959C66.9594 105.414 68.2596 104.63 69.3971 103.642C69.8313 103.26 70.2229 102.846 70.5996 102.397C72.3713 100.287 73.8635 97.8533 74.4994 95.1481C74.7695 93.9994 74.8817 92.8314 75.0909 91.6782C75.4856 89.5031 75.9339 87.3511 76.3367 85.1792C76.5288 84.1309 76.6027 83.0321 76.8116 81.9948L86.6901 30.3941C87.0669 28.4288 87.275 26.675 87.5961 24.7491C88.0919 21.7072 88.6559 18.6771 89.2878 15.6607C89.4901 14.6507 89.5705 13.1528 89.8657 12.2733C91.2664 8.10113 93.3918 4.32488 97.3978 2.16691C98.3525 1.65268 99.9014 0.580742 101.004 0.367749C105.497 -0.499976 110.385 0.485356 114.936 0.151371C114.075 1.06116 112.041 1.77889 110.838 2.62807C107.165 5.22318 104.532 9.18127 103.732 13.6297C103.725 13.6709 103.74 13.8155 103.745 13.8652C103.187 18.5071 102 23.1756 101.376 27.8293C101.305 28.3589 101.051 29.1352 100.909 29.6682C99.7532 33.9827 99.4188 38.4679 98.4214 42.8247C98.1419 44.0455 98.0265 45.3431 97.6456 46.5369C97.0812 47.5559 94.522 62.9528 94.2939 65.4134C94.2875 65.4821 94.5534 65.8238 94.6317 65.9219C94.4769 66.1766 94.2144 66.5825 94.1011 66.8375C93.5726 68.1059 93.2834 70.1832 93.054 71.5948C92.7516 72.5812 92.5748 73.2652 92.3667 74.2754Z" fill="#1D276E"/>
</svg>
